#!OML:ASF F:\VICON\USERDATA\INSTALL\rory3\rory3.ASF
:FULLY-SPECIFIED
:DEGREES
289
root 0.191965 17.3999 23.8455 -2.84044 -3.29612 3.50699
lowerback 5.84671 1.29635 -2.22943
upperback 1.06994 1.60554 0.730024
thorax -2.25688 0.817965 1.8783
lowerneck -13.6524 -2.0652 -9.56123
upperneck 25.605 -1.78571 4.70427
head 10.6057 -1.18709 3.08294
rclavicle 5.69021e-015 1.35174e-014
rhumerus -28.3075 -9.87705 -78.1927
rradius 37.5056
rwrist 2.13234
rhand -15.1125 18.9515
rfingers 7.12502
rthumb 11.0563 -10.7373
lclavicle 5.69021e-015 1.35174e-014
lhumerus -41.8748 14.0773 81.8431
lradius 23.1784
lwrist -15.6733
lhand -11.7842 27.6987
lfingers 7.12502
lthumb 14.2649 57.1887
rfemur -9.98392 0.371504 16.8178
rtibia 73.5502
rfoot 5.1369 -4.26867
rtoes 1.52342
lfemur -12.7639 0.321057 -26.5258
ltibia 23.4681
lfoot -5.33881 -0.917171
ltoes -1.62537
290
root 0.197054 17.4098 24.0361 -2.87258 -3.037 3.74343
lowerback 5.69662 1.14775 -2.46633
upperback 1.09418 1.3959 0.683923
thorax -2.14202 0.713362 1.98354
lowerneck -13.3813 -1.99725 -9.50468
upperneck 25.6025 -1.70405 4.59943
head 10.5438 -1.1592 3.04559
rclavicle 3.05631e-015 -7.95139e-016
rhumerus -28.4828 -10.3183 -78.2366
rradius 36.7845
rwrist 2.9969
rhand -15.1645 19.4052
rfingers 7.12502
rthumb 11.0061 -10.2863
lclavicle 3.05631e-015 -7.95139e-016
lhumerus -41.3015 14.2557 81.6231
lradius 23.2003
lwrist -16.5532
lhand -13.2476 25.8104
lfingers 7.12502
lthumb 12.8546 55.3946
rfemur -11.3638 -0.212521 16.4833
rtibia 74.506
rfoot 3.6501 -4.74121
rtoes 2.83164
lfemur -11.8308 0.358432 -26.8733
ltibia 23.1951
lfoot -5.85964 -1.02184
ltoes -1.25388
291
root 0.192414 17.4118 24.2128 -2.9244 -2.89363 3.71751
lowerback 5.65386 1.04024 -2.56435
upperback 1.26136 1.2508 0.75265
thorax -1.94178 0.63726 2.12294
lowerneck -13.5044 -1.98132 -9.58271
upperneck 25.5935 -1.64899 4.59908
head 10.5613 -1.14039 3.06574
rclavicle -1.28216e-014 1.51076e-014
rhumerus -28.4837 -10.7916 -78.2685
rradius 36.3248
rwrist 3.92604
rhand -15.0156 19.1499
rfingers 7.12502
rthumb 11.1497 -10.5339
lclavicle -1.28216e-014 1.51076e-014
lhumerus -40.461 14.1869 81.7063
lradius 23.385
lwrist -16.8321
lhand -13.9376 25.1447
lfingers 7.12502
lthumb 12.1892 54.7696
rfemur -12.8553 -0.665396 16.5915
rtibia 75.3124
rfoot 2.41875 -5.28678
rtoes 2.56743
lfemur -10.999 0.370767 -26.8714
ltibia 22.9684
lfoot -6.22625 -0.912455
ltoes -1.60459
292
root 0.188221 17.416 24.3927 -3.04598 -2.78783 3.62143
lowerback 5.73777 0.881207 -2.57899
upperback 1.36824 1.03847 0.832629
thorax -1.86828 0.52926 2.22922
lowerneck -13.5411 -1.92141 -9.58359
upperneck 25.6407 -1.52753 4.47412
head 10.576 -1.10058 3.03716
rclavicle 1.73937e-014 9.54166e-015
rhumerus -28.5221 -11.0668 -78.3444
rradius 35.7426
rwrist 4.7341
rhand -14.8606 18.8152
rfingers 7.12502
rthumb 11.2992 -10.8605
lclavicle 1.73937e-014 9.54166e-015
lhumerus -39.8926 13.9396 81.8154
lradius 23.7682
lwrist -16.6915
lhand -13.1581 26.4318
lfingers 7.12502
lthumb 12.9408 56.0105
rfemur -14.2439 -1.15323 16.7628
rtibia 75.9219
rfoot 1.34928 -5.58836
rtoes 1.42088
lfemur -10.1057 0.377734 -26.792
ltibia 22.7573
lfoot -6.65428 -0.875254
ltoes -2.15331
293
root 0.191691 17.4219 24.5826 -3.19782 -2.56215 4.00332
lowerback 5.80083 0.742301 -2.94923
upperback 1.41492 0.827994 0.725706
thorax -1.8465 0.424675 2.34254
lowerneck -13.6026 -1.87075 -9.50191
upperneck 25.9027 -1.44812 4.38005
head 10.6773 -1.07282 3.00484
rclavicle -6.26172e-015 -6.36111e-015
rhumerus -28.6323 -11.5151 -78.364
rradius 34.8817
rwrist 5.66125
rhand -14.629 18.6681
rfingers 7.12502
rthumb 11.5226 -10.9951
lclavicle -6.26172e-015 -6.36111e-015
lhumerus -39.4335 13.4857 81.9215
lradius 24.1859
lwrist -16.5673
lhand -12.2438 27.5007
lfingers 7.12502
lthumb 13.8221 57.0214
rfemur -15.4552 -1.80149 16.2954
rtibia 76.363
rfoot 0.00494671 -5.47484
rtoes 0.481216
lfemur -9.08415 0.391531 -27.2962
ltibia 22.4914
lfoot -7.25254 -0.879401
ltoes -2.67859
294
root 0.196177 17.4275 24.766 -3.24474 -2.18823 4.35169
lowerback 5.77581 0.561213 -3.31636
upperback 1.41634 0.565292 0.689779
thorax -1.81738 0.294445 2.5318
lowerneck -13.6285 -1.82218 -9.56523
upperneck 26.2151 -1.35067 4.33091
head 10.7917 -1.04725 3.01702
rclavicle -3.23025e-015 7.95139e-016
rhumerus -28.8808 -12.0302 -78.2023
rradius 34.0999
rwrist 6.51542
rhand -14.5933 18.6435
rfingers 7.12502
rthumb 11.5569 -11.0179
lclavicle -3.23025e-015 7.95139e-016
lhumerus -38.9261 13.3104 81.9667
lradius 24.4249
lwrist -16.7177
lhand -13.0235 26.6734
lfingers 7.12502
lthumb 13.0705 56.2438
rfemur -16.7087 -2.59262 15.8707
rtibia 76.5857
rfoot -1.3218 -5.13506
rtoes 0.379154
lfemur -8.20878 0.190414 -27.8033
ltibia 22.2534
lfoot -7.83995 -0.763886
ltoes -2.92454
295
root 0.196362 17.433 24.9375 -3.08204 -1.8414 4.70847
lowerback 5.80071 0.389481 -3.71391
upperback 1.22294 0.307151 0.593042
thorax -2.01418 0.173798 2.67435
lowerneck -13.3436 -1.71368 -9.40111
upperneck 26.3791 -1.23719 4.20907
head 10.785 -0.999835 2.96227
rclavicle 9.44227e-015 -3.97569e-015
rhumerus -29.5118 -12.5479 -78.1262
rradius 33.7053
rwrist 7.18191
rhand -14.4863 18.3937
rfingers 7.12502
rthumb 11.6602 -11.2619
lclavicle 9.44227e-015 -3.97569e-015
lhumerus -38.6051 12.8146 81.9634
lradius 24.7891
lwrist -16.5877
lhand -14.0706 25.2774
lfingers 7.12502
lthumb 12.061 54.9098
rfemur -18.3139 -3.333 15.5017
rtibia 76.694
rfoot -2.40267 -4.85067
rtoes 1.35881
lfemur -7.69576 -0.0971369 -28.2689
ltibia 22.128
lfoot -8.30975 -0.614516
ltoes -2.57944
296
root 0.193038 17.4329 25.1072 -2.96198 -1.68355 4.66164
lowerback 5.92185 0.25978 -3.73423
upperback 1.03989 0.126136 0.619923
thorax -2.25745 0.0913019 2.72731
lowerneck -13.0659 -1.62282 -9.3001
upperneck 26.6147 -1.13973 4.11552
head 10.8089 -0.964122 2.9278
rclavicle -2.28602e-015 -5.56597e-015
rhumerus -30.198 -12.7929 -78.0986
rradius 33.4721
rwrist 7.58516
rhand -14.4724 18.4155
rfingers 7.12502
rthumb 11.6736 -11.2393
lclavicle -2.28602e-015 -5.56597e-015
lhumerus -38.3281 12.301 81.9641
lradius 25.3677
lwrist -16.2905
lhand -14.1976 24.7683
lfingers 7.12502
lthumb 11.9386 54.4078
rfemur -19.8097 -3.7848 15.7328
rtibia 76.5765
rfoot -3.36084 -4.80633
rtoes 1.31287
lfemur -7.3008 -0.239486 -28.257
ltibia 22.232
lfoot -8.71837 -0.457078
ltoes -1.93112
297
root 0.183906 17.4212 25.2793 -3.01307 -1.57756 4.52081
lowerback 5.91433 0.166894 -3.75747
upperback 1.17103 0.00611689 0.734516
thorax -2.10883 0.02686 2.86806
lowerneck -13.2786 -1.6485 -9.3351
upperneck 26.8936 -1.1417 4.09131
head 10.9567 -0.976539 2.93094
rclavicle 1.22004e-014 -1.27222e-014
rhumerus -30.3135 -13.0098 -78.0762
rradius 32.931
rwrist 7.68939
rhand -14.6472 18.6228
rfingers 7.12502
rthumb 11.505 -11.0415
lclavicle 1.22004e-014 -1.27222e-014
lhumerus -37.647 11.6678 82.2175
lradius 26.0402
lwrist -15.7518
lhand -14.2133 24.8889
lfingers 7.12502
lthumb 11.9234 54.5293
rfemur -21.0746 -4.06791 16.1342
rtibia 76.338
rfoot -4.42497 -4.85696
rtoes 2.85555
lfemur -6.74342 -0.202463 -28.1159
ltibia 22.4447
lfoot -9.16192 -0.363639
ltoes -1.58407
298
root 0.180446 17.4092 25.4591 -3.0108 -1.31454 4.63121
lowerback 5.79408 0.0412531 -3.93302
upperback 1.28462 -0.164754 0.755802
thorax -1.91045 -0.0633694 3.00102
lowerneck -13.5547 -1.71306 -9.34273
upperneck 27.0854 -1.18312 4.01367
head 11.0882 -1.00826 2.9027
rclavicle 2.93207e-015 -1.27222e-014
rhumerus -30.3752 -13.4621 -77.9647
rradius 32.2819
rwrist 7.90924
rhand -14.5377 18.5577
rfingers 7.12502
rthumb 11.6106 -11.1007
lclavicle 2.93207e-015 -1.27222e-014
lhumerus -36.8839 11.1251 82.4471
lradius 26.4586
lwrist -15.0795
lhand -14.3363 25.3051
lfingers 7.12502
lthumb 11.8048 54.9524
rfemur -22.3139 -4.49359 16.1703
rtibia 75.9494
rfoot -5.73933 -4.80759
rtoes 3.25612
lfemur -6.23227 -0.279812 -28.2885
ltibia 22.7289
lfoot -9.77759 -0.303293
ltoes -1.70211
299
root 0.183787 17.3873 25.641 -2.97377 -0.880342 4.95034
lowerback 5.73051 -0.134643 -4.20895
upperback 1.23963 -0.415157 0.676554
thorax -1.89945 -0.18659 3.09233
lowerneck -13.3256 -1.70129 -9.33043
upperneck 27.0804 -1.17936 3.96014
head 11.0404 -1.01351 2.88073
rclavicle 9.51682e-015 -7.15625e-015
rhumerus -30.8231 -13.6481 -77.8735
rradius 31.8004
rwrist 7.7197
rhand -14.4234 18.6848
rfingers 7.12502
rthumb 11.7208 -10.9673
lclavicle 9.51682e-015 -7.15625e-015
lhumerus -36.5122 10.3621 82.6277
lradius 27.1622
lwrist -14.1391
lhand -14.5307 25.6184
lfingers 7.12502
lthumb 11.6173 55.2764
rfemur -23.5148 -5.20868 15.8475
rtibia 75.4853
rfoot -7.28412 -4.56471
rtoes 2.03396
lfemur -5.68643 -0.472634 -28.722
ltibia 23.0028
lfoot -10.502 -0.264547
ltoes -1.88826
300
root 0.185331 17.3656 25.8137 -2.85912 -0.423953 5.33537
lowerback 5.74779 -0.356457 -4.61575
upperback 1.17513 -0.738381 0.608701
thorax -1.94373 -0.343706 3.27491
lowerneck -13.1426 -1.6157 -9.31161
upperneck 27.0236 -1.07101 3.92137
head 10.9736 -0.967204 2.87593
rclavicle 4.72114e-015 7.95139e-016
rhumerus -31.1726 -13.5089 -77.8736
rradius 31.375
rwrist 7.60981
rhand -14.3928 18.6409
rfingers 7.12502
rthumb 11.7503 -11.0095
lclavicle 4.72114e-015 7.95139e-016
lhumerus -36.0578 9.95788 82.6727
lradius 27.8128
lwrist -13.4036
lhand -14.5121 25.803
lfingers 7.12502
lthumb 11.6353 55.4599
rfemur -24.8596 -5.97464 15.4968
rtibia 74.9051
rfoot -8.67404 -4.3845
rtoes -0.201027
lfemur -5.22122 -0.710185 -29.2203
ltibia 23.2306
lfoot -11.1969 -0.247019
ltoes -2.05102
